# xmcd
#
# Track frame offsets:
#	150
#	13432
#	26017
#	43372
#	63879
#	86676
#	106273
#	128568
#	148046
#	172171
#	188910
#
# Disc length: 3270 seconds
#
# Revision: 0
# Processed by: cddbd v1.4PL0 Copyright (c) Steve Scherf et al.
# Submitted via: dBpowerAMP V4.0
#
DISCID=9d0cc40b
DTITLE=Carter Wood - Unspoken
DYEAR=1900
DGENRE=
TTITLE0=You Always Say
TTITLE1=Turned Away
TTITLE2=Nowhere's Too Far
TTITLE3=Pretty Girls Drink For Free
TTITLE4=Strange Love
TTITLE5=That Feeling
TTITLE6=One Last Look
TTITLE7=Here Is My Heart
TTITLE8=Someone Else
TTITLE9=Ever Get Around To It
TTITLE10=Alabama Rain
EXTD=
EXTT0=
EXTT1=
EXTT2=
EXTT3=
EXTT4=
EXTT5=
EXTT6=
EXTT7=
EXTT8=
EXTT9=
EXTT10=
PLAYORDER=
